HIERARCHY
ROOT Hips
{
	OFFSET 0.00000 0.00000 0.00000
	CHANNELS 6 Xposition Yposition Zposition Zrotation Yrotation Xrotation 
	JOINT LHipJoint
	{
		OFFSET 0 0 0
		CHANNELS 3 Zrotation Yrotation Xrotation
		JOINT LeftHip
		{
			OFFSET 1.54859 -1.61379 0.86856
			CHANNELS 3 Zrotation Yrotation Xrotation
			JOINT LeftKnee
			{
				OFFSET 2.25087 -6.18423 0.00000
				CHANNELS 3 Zrotation Yrotation Xrotation
				JOINT LeftAnkle
				{
					OFFSET 2.40328 -6.60297 0.00000
					CHANNELS 3 Zrotation Yrotation Xrotation
					JOINT LeftToe
					{
						OFFSET 0.17435 -0.47901 2.02453
						CHANNELS 3 Zrotation Yrotation Xrotation
						End Site
						{
							OFFSET 0.00000 -0.00000 1.04844
						}
					}
				}
			}
		}
	}
	JOINT RHipJoint
	{
		OFFSET 0 0 0
		CHANNELS 3 Zrotation Yrotation Xrotation
		JOINT RightHip
		{
			OFFSET -1.54669 -1.61379 0.86856
			CHANNELS 3 Zrotation Yrotation Xrotation
			JOINT RightKnee
			{
				OFFSET -2.28132 -6.26789 0.00000
				CHANNELS 3 Zrotation Yrotation Xrotation
				JOINT RightAnkle
				{
					OFFSET -2.51636 -6.91365 0.00000
					CHANNELS 3 Zrotation Yrotation Xrotation
					JOINT RightToe
					{
						OFFSET -0.15124 -0.41552 2.21090
						CHANNELS 3 Zrotation Yrotation Xrotation
						End Site
						{
							OFFSET -0.00000 -0.00000 1.13399
						}
					}
				}
			}
		}
	}
	JOINT lowerback
	{
		OFFSET 0 0 0
		CHANNELS 3 Zrotation Yrotation Xrotation
		JOINT Chest
		{
			OFFSET -0.04287 2.26161 -0.25690
			CHANNELS 3 Zrotation Yrotation Xrotation
			JOINT Chest2
			{
				OFFSET 0.02248 2.28395 -0.10140
				CHANNELS 3 Zrotation Yrotation Xrotation
				JOINT lowerneck
				{
					OFFSET 0 0 0
					CHANNELS 3 Zrotation Yrotation Xrotation
					JOINT Neck
					{
						OFFSET -0.11644 1.38496 0.11345
						CHANNELS 3 Zrotation Yrotation Xrotation
						JOINT Head
						{
							OFFSET 0.29383 1.36600 0.06642
							CHANNELS 3 Zrotation Yrotation Xrotation
							End Site
							{
								OFFSET 0.11075 1.41395 -0.00294
							}
						}
					}
				}
				JOINT LeftCollar
				{
					OFFSET 0 0 0
					CHANNELS 3 Zrotation Yrotation Xrotation
					JOINT LeftShoulder
					{
						OFFSET 3.51628 0.59542 -0.30346
CHANNELS 3 Zrotation Xrotation Yrotation
						JOINT LeftElbow
						{
OFFSET 0 -4.764050 0.000000
CHANNELS 3 Zrotation Xrotation Yrotation
							JOINT LeftWrist
							{
OFFSET 0 -3.137590 -0.000000
CHANNELS 3 Zrotation Xrotation Yrotation
								JOINT lhand
								{
									OFFSET 0 0 0
CHANNELS 3 Zrotation Xrotation Yrotation
									JOINT LFingers
									{
OFFSET 0 -0.732260 -0.000000
CHANNELS 3 Zrotation Xrotation Yrotation
										End Site
										{
OFFSET 0 -0.590370 -0.000000
										}
									}
								}
								JOINT LThumb
								{
OFFSET 0 0.000000 0.000000
CHANNELS 3 Zrotation Xrotation Yrotation
									End Site
									{
OFFSET 0 -0.599380 0.599380
									}
								}
							}
						}
					}
				}
				JOINT RightCollar
				{
					OFFSET 0 0 0
					CHANNELS 3 Zrotation Yrotation Xrotation
					JOINT RightShoulder
					{
						OFFSET -3.30990 0.84213 -0.36430
CHANNELS 3 Zrotation Xrotation Yrotation
						JOINT RightElbow
						{
OFFSET 0 -5.101610 -0.000000
CHANNELS 3 Zrotation Xrotation Yrotation
							JOINT RightWrist
							{
OFFSET 0 -3.232670 -0.000000
CHANNELS 3 Zrotation Xrotation Yrotation
								JOINT rhand
								{
									OFFSET 0 0 0
CHANNELS 3 Zrotation Xrotation Yrotation
									JOINT RFingers
									{
OFFSET 0 -0.702000 -0.000000
CHANNELS 3 Zrotation Xrotation Yrotation
										End Site
										{
OFFSET 0 -0.565970 -0.000000
										}
									}
								}
								JOINT RThumb
								{
OFFSET 0 0.000000 0.000000
CHANNELS 3 Zrotation Xrotation Yrotation
									End Site
									{
OFFSET 0 -0.574610 0.574610
									}
								}
							}
						}
					}
				}
			}
		}
	}
}
MOTION
Frames: 8
Frame Time: 0.008333333333333333
-18.538368 13.927520 -1.801119 -194.378860 59.793875 -166.643780 0.000000 0.000000 0.000000 -15.606347 4.211249 7.987976 1.537692 7.815879 22.162784 -0.089221 5.663781 -0.202048 4.489433 -12.774106 -38.545445 0.000000 0.000000 0.000000 21.486238 12.066840 -82.591614 -15.393622 -19.470386 76.411426 -0.847077 -0.125209 -17.444341 -1.643450 8.076624 -22.948938 -12.065340 -1.916170 24.395931 -2.981814 -3.767069 10.351035 4.468716 -1.575937 -1.285087 -15.378941 -8.340811 -2.083299 30.955636 -4.823862 -26.923867 13.987267 -2.514519 -5.761517 0.000000 0.000000 0.000000 12.892551 -48.089438 -15.712736 32.994384 -43.318658 13.420670 37.104644 16.749180 -27.757781 0.000000 0.000000 0.000000 -7.125000 0.000000 0.000000 8.687508 63.202954 -3.886969 0.000000 0.000000 0.000000 -9.195589 -6.411615 16.911884 -29.559457 -40.512788 -11.122313 -43.144444 -43.005681 -28.854323 0.000000 0.000000 0.000000 7.125000 0.000000 0.000000 -7.016097 -6.835961 -7.859300
-18.380444 13.942933 -1.898688 -194.909750 60.148646 -167.090753 0.000000 0.000000 0.000000 -16.179148 3.718751 9.240121 1.410990 7.511719 21.241272 -0.105023 6.556554 0.882412 4.750236 -13.093990 -39.726248 0.000000 0.000000 0.000000 22.192414 12.231991 -82.500844 -14.829562 -19.343501 74.720247 -0.842336 -0.013535 -17.355864 -1.585103 7.942204 -22.538705 -12.231346 -1.807597 24.252717 -2.884465 -3.643345 10.377019 4.631642 -1.533475 -1.180698 -15.582528 -8.281624 -2.060161 30.649589 -4.826974 -26.929681 13.899377 -2.487860 -5.779915 0.000000 0.000000 0.000000 12.727263 -47.619588 -15.886420 33.575149 -43.765304 13.819088 36.390024 16.559673 -27.052528 0.000000 0.000000 0.000000 -7.125000 0.000000 0.000000 7.822148 62.204078 -3.286963 0.000000 0.000000 0.000000 -9.632542 -6.384755 17.042625 -29.566816 -40.519196 -11.127068 -43.696452 -43.650647 -28.698617 0.000000 0.000000 0.000000 7.125000 0.000000 0.000000 -7.360898 -6.880653 -8.254760
-18.223207 13.953789 -1.993947 -195.559583 60.476943 -167.716922 0.000000 0.000000 0.000000 -16.781014 3.356685 10.298334 1.334550 7.309332 20.637754 -0.074372 6.678257 2.162019 5.026959 -13.402416 -40.915480 0.000000 0.000000 0.000000 22.972889 12.236086 -82.288540 -14.314203 -19.193701 73.151445 -0.836626 0.112375 -17.253806 -1.611171 8.003807 -22.725842 -12.534777 -1.636462 24.142095 -2.703075 -3.461241 10.434565 4.951037 -1.471159 -1.047464 -15.881113 -8.236173 -2.074736 30.285382 -4.886624 -26.862068 13.792662 -2.476967 -5.753358 0.000000 0.000000 0.000000 12.294804 -47.232280 -16.331799 34.194782 -44.219474 14.251847 35.919439 16.033721 -26.383613 0.000000 0.000000 0.000000 -7.125000 0.000000 0.000000 7.336313 61.322897 -2.942138 0.000000 0.000000 0.000000 -10.256870 -6.434225 16.952776 -29.608361 -40.555294 -11.154113 -43.237287 -44.149478 -28.747861 0.000000 0.000000 0.000000 7.125000 0.000000 0.000000 -7.095030 -6.749522 -7.938934
-18.065970 13.964645 -2.089206 -196.209416 60.805240 -168.343090 0.000000 0.000000 0.000000 -17.382880 2.994619 11.356548 1.258110 7.106944 20.034236 -0.043721 6.799960 3.441627 5.303683 -13.710843 -42.104712 0.000000 0.000000 0.000000 23.753365 12.240180 -82.076237 -13.798844 -19.043901 71.582642 -0.830917 0.238284 -17.151748 -1.637240 8.065409 -22.912979 -12.838208 -1.465327 24.031473 -2.521686 -3.279138 10.492111 5.270432 -1.408843 -0.914229 -16.179698 -8.190722 -2.089310 29.921175 -4.946273 -26.794456 13.685946 -2.466074 -5.726801 0.000000 0.000000 0.000000 11.862346 -46.844972 -16.777179 34.814415 -44.673643 14.684606 35.448855 15.507769 -25.714698 0.000000 0.000000 0.000000 -7.125000 0.000000 0.000000 6.850478 60.441716 -2.597314 0.000000 0.000000 0.000000 -10.881198 -6.483695 16.862926 -29.649905 -40.591392 -11.181158 -42.778122 -44.648310 -28.797106 0.000000 0.000000 0.000000 7.125000 0.000000 0.000000 -6.829162 -6.618391 -7.623108
-17.911303 13.968192 -2.183189 -196.944701 61.107749 -169.066701 0.000000 0.000000 0.000000 -17.996145 2.701600 12.273013 1.212978 6.986355 19.675085 0.001413 6.531912 4.601221 5.445510 -13.868576 -42.713553 0.000000 0.000000 0.000000 24.502781 12.177930 -81.820426 -13.338296 -18.895510 70.167845 -0.813331 0.274231 -16.952648 -1.674461 8.151373 -23.175253 -12.845847 -1.396373 23.999186 -2.652682 -3.185418 10.509785 5.109409 -1.357413 -0.901218 -16.112303 -8.141922 -2.039538 29.618822 -4.941576 -26.790123 13.546668 -2.458093 -5.762250 0.000000 0.000000 0.000000 12.027084 -46.333748 -17.231523 35.518548 -45.170234 15.182872 35.002403 14.797990 -25.340147 0.000000 0.000000 0.000000 -7.125000 0.000000 0.000000 6.356650 59.901583 -2.320242 0.000000 0.000000 0.000000 -10.959278 -6.477364 16.812890 -29.670971 -40.609695 -11.194862 -42.579424 -44.911471 -28.667757 0.000000 0.000000 0.000000 7.125000 0.000000 0.000000 -6.753116 -6.388067 -7.511644
-17.759136 13.964624 -2.275931 -197.763190 61.385149 -169.885190 0.000000 0.000000 0.000000 -18.620511 2.475812 13.051461 1.198328 6.945412 19.553870 0.060649 5.884370 5.643958 5.455990 -13.879582 -42.757276 0.000000 0.000000 0.000000 25.221955 12.051081 -81.522254 -12.931118 -18.748490 68.902999 -0.784183 0.222583 -16.659059 -1.722541 8.261055 -23.510687 -12.565480 -1.426911 24.043172 -3.087845 -3.177755 10.488637 4.480611 -1.316582 -1.005266 -15.688559 -8.089860 -1.927113 29.376693 -4.874226 -26.847406 13.375683 -2.452947 -5.858072 0.000000 0.000000 0.000000 12.773303 -45.701870 -17.694595 36.304959 -45.708131 15.744921 34.579448 13.909222 -25.252213 0.000000 0.000000 0.000000 -7.125000 0.000000 0.000000 5.855039 59.693524 -2.109140 0.000000 0.000000 0.000000 -10.505484 -6.416700 16.801622 -29.672098 -40.610671 -11.195575 -42.634341 -44.945165 -28.364514 0.000000 0.000000 0.000000 7.125000 0.000000 0.000000 -6.861897 -6.061160 -7.599165
-17.606970 13.961055 -2.368673 -198.581679 61.662549 -170.703679 0.000000 0.000000 0.000000 -19.244876 2.250023 13.829908 1.183679 6.904469 19.432656 0.119885 5.236829 6.686696 5.466470 -13.890588 -42.800999 0.000000 0.000000 0.000000 25.941129 11.924232 -81.224082 -12.523939 -18.601470 67.638154 -0.755034 0.170934 -16.365469 -1.770621 8.370738 -23.846121 -12.285113 -1.457450 24.087158 -3.523008 -3.170092 10.467490 3.851813 -1.275751 -1.109315 -15.264816 -8.037798 -1.814688 29.134564 -4.806877 -26.904689 13.204698 -2.447801 -5.953894 0.000000 0.000000 0.000000 13.519522 -45.069992 -18.157667 37.091369 -46.246027 16.306970 34.156493 13.020453 -25.164279 0.000000 0.000000 0.000000 -7.125000 0.000000 0.000000 5.353428 59.485465 -1.898038 0.000000 0.000000 0.000000 -10.051690 -6.356037 16.790353 -29.673225 -40.611648 -11.196289 -42.689257 -44.978859 -28.061271 0.000000 0.000000 0.000000 7.125000 0.000000 0.000000 -6.970678 -5.734252 -7.686686
-17.456961 13.957201 -2.460242 -199.521972 61.916318 -171.600199 0.000000 0.000000 0.000000 -19.884404 2.177852 14.186771 1.237734 7.050639 19.867199 0.157838 4.179915 7.331354 5.449322 -13.872539 -42.729421 0.000000 0.000000 0.000000 26.473157 11.776004 -80.862820 -12.197264 -18.468026 66.607462 -0.748153 0.925977 -16.096907 -1.610938 7.976588 -22.657432 -12.329744 -1.399522 23.971848 -3.680688 -3.082401 10.497823 3.680569 -1.230353 -1.037161 -15.214094 -7.989892 -1.730304 28.881588 -4.788882 -26.943004 13.099309 -2.434820 -6.007752 0.000000 0.000000 0.000000 13.736658 -44.543264 -18.662259 38.027909 -46.840258 16.991266 33.613892 12.058285 -25.307739 0.000000 0.000000 0.000000 -7.125000 0.000000 0.000000 4.665624 59.507214 -1.653567 0.000000 0.000000 0.000000 -10.126249 -6.487308 16.735089 -29.623854 -40.568725 -11.164205 -42.542438 -44.938392 -27.798661 0.000000 0.000000 0.000000 7.125000 0.000000 0.000000 -6.955373 -5.373120 -7.630422
